<svg width="30" height="30" viewBox="0 0 30 30" fill="none" xmlns="http://www.w3.org/2000/svg">
<path d="M24.3563 25.1924L16.5288 17.3649C15.9038 17.8974 15.185 18.3095 14.3725 18.6012C13.56 18.8929 12.7433 19.0387 11.9225 19.0387C9.92084 19.0387 8.22668 18.3458 6.84001 16.9599C5.45334 15.5741 4.76001 13.8804 4.76001 11.8787C4.76001 9.87702 5.45251 8.18243 6.83751 6.79493C8.22251 5.40743 9.91584 4.71285 11.9175 4.71118C13.9192 4.70952 15.6142 5.40285 17.0025 6.79118C18.3908 8.17952 19.085 9.8741 19.085 11.8749C19.085 12.7433 18.9313 13.5837 18.6238 14.3962C18.3163 15.2087 17.9121 15.9037 17.4113 16.4812L25.2388 24.3074L24.3563 25.1924ZM11.9238 17.7874C13.5821 17.7874 14.9821 17.2166 16.1238 16.0749C17.2654 14.9333 17.8363 13.5329 17.8363 11.8737C17.8363 10.2145 17.2654 8.81452 16.1238 7.67368C14.9821 6.53285 13.5821 5.96202 11.9238 5.96118C10.2654 5.96035 8.86501 6.53118 7.72251 7.67368C6.58001 8.81618 6.00918 10.2162 6.01001 11.8737C6.01084 13.5312 6.58168 14.9312 7.72251 16.0737C8.86334 17.2162 10.2633 17.787 11.9225 17.7862" fill="black"/>
</svg>
